<svg id="Grupo_32" data-name="Grupo 32" xmlns="http://www.w3.org/2000/svg" xmlns:xlink="http://www.w3.org/1999/xlink" width="110.395" height="30.634" viewBox="0 0 110.395 30.634">
  <defs>
    <clipPath id="clip-path">
      <rect id="Rectángulo_8" data-name="Rectángulo 8" width="110.395" height="30.634" fill="none"/>
    </clipPath>
  </defs>
  <g id="Grupo_3" data-name="Grupo 3" clip-path="url(#clip-path)">
    <path id="Trazado_6" data-name="Trazado 6" d="M0,2.408A2.318,2.318,0,0,1,.708.709,2.318,2.318,0,0,1,2.407,0a2.317,2.317,0,0,1,1.7.708,2.318,2.318,0,0,1,.708,1.7V9.347a11.291,11.291,0,0,1,6.962-2.266,11.35,11.35,0,0,1,8.331,3.446,11.349,11.349,0,0,1,3.446,8.331,11.349,11.349,0,0,1-3.446,8.331,11.348,11.348,0,0,1-8.331,3.446,11.347,11.347,0,0,1-8.331-3.446A11.356,11.356,0,0,1,0,18.976ZM6.821,23.814a6.754,6.754,0,0,0,4.956,2.053,6.733,6.733,0,0,0,4.944-2.042,6.734,6.734,0,0,0,2.042-4.944,6.774,6.774,0,0,0-2.042-4.956,6.714,6.714,0,0,0-4.944-2.053,6.753,6.753,0,0,0-4.956,2.053,6.7,6.7,0,0,0-2.006,4.107v.9a3.916,3.916,0,0,1-.024.425,6.581,6.581,0,0,0,2.03,4.461" transform="translate(0 -0.001)" fill="#0097a6"/>
    <path id="Trazado_7" data-name="Trazado 7" d="M138.34,39.749a7.093,7.093,0,0,0-7.812,1.451,7.005,7.005,0,0,0,9.889,9.924l.047-.047a2.278,2.278,0,0,1,1.675-.685,2.338,2.338,0,0,1,1.7.7,2.277,2.277,0,0,1,.708,1.688,2.315,2.315,0,0,1-.708,1.7l-.047.047a11.777,11.777,0,0,1-20.085-8.355,11.782,11.782,0,0,1,20.085-8.355l-.024.023a.021.021,0,0,0,.024.024,2.281,2.281,0,0,1,.684,1.676,2.252,2.252,0,0,1-.684,1.652l-6.75,6.7a2.357,2.357,0,0,1-1.7.685,2.34,2.34,0,0,1-2.407-2.407,2.357,2.357,0,0,1,.684-1.7Z" transform="translate(-98.24 -27.312)" fill="#0097a6"/>
    <path id="Trazado_8" data-name="Trazado 8" d="M449.634,39.749a7.093,7.093,0,0,0-7.812,1.451,7.005,7.005,0,0,0,9.889,9.924l.047-.047a2.278,2.278,0,0,1,1.675-.685,2.338,2.338,0,0,1,1.7.7,2.278,2.278,0,0,1,.708,1.688,2.316,2.316,0,0,1-.708,1.7l-.047.047A11.777,11.777,0,0,1,435,46.169a11.782,11.782,0,0,1,20.085-8.355l-.024.023a.021.021,0,0,0,.024.024,2.281,2.281,0,0,1,.684,1.676,2.252,2.252,0,0,1-.684,1.652l-6.75,6.7a2.358,2.358,0,0,1-1.7.685,2.34,2.34,0,0,1-2.408-2.407,2.357,2.357,0,0,1,.684-1.7Z" transform="translate(-345.446 -27.312)" fill="#002239"/>
    <path id="Trazado_9" data-name="Trazado 9" d="M251.456,34.162a2.279,2.279,0,0,1,1.676.685,2.2,2.2,0,0,1,.378.5h.023l7.363,14.75,7.364-14.75.023.023a2.539,2.539,0,0,1,.4-.519,2.35,2.35,0,0,1,3.328.012,2.289,2.289,0,0,1,.685,1.664,2.2,2.2,0,0,1-.448,1.369l-9.134,18.338a2.043,2.043,0,0,1-.543.826,2.241,2.241,0,0,1-1.676.708,2.215,2.215,0,0,1-1.652-.708,2.082,2.082,0,0,1-.543-.8l-7.246-14.515-7.222,14.491a2.044,2.044,0,0,1-.543.826,2.242,2.242,0,0,1-1.676.708,2.213,2.213,0,0,1-1.652-.708,2.075,2.075,0,0,1-.543-.8L230.64,37.867a2.24,2.24,0,0,1-.425-1.345,2.37,2.37,0,0,1,4.036-1.676,2.189,2.189,0,0,1,.377.5h.024l7.363,14.75,7.364-14.75.023.023a2.54,2.54,0,0,1,.4-.519,2.25,2.25,0,0,1,1.652-.685" transform="translate(-182.82 -27.129)" fill="#002239"/>
  </g>
</svg>
