<svg xmlns="http://www.w3.org/2000/svg" width="108.168" height="26.634" viewBox="0 0 108.168 26.634">
  <g id="Grupo_35" data-name="Grupo 35" transform="translate(-65.647 -15.648)">
    <path id="Trazado_1597" data-name="Trazado 1597" d="M968.021,131.108h-3.377a3.369,3.369,0,0,1-2.5-1.033,3.536,3.536,0,0,1,0-4.962,3.367,3.367,0,0,1,2.5-1.034h3.377V120.7a3.41,3.41,0,0,1,1.016-2.481,3.523,3.523,0,0,1,6.012,2.481v3.377h3.377a3.514,3.514,0,0,1,0,7.029H975.05v3.377a3.514,3.514,0,1,1-7.029,0Z" transform="translate(-808.626 -98.594)" fill="#002239" stroke="#03d3f3" stroke-width="1"/>
    <g id="Grupo_2472" data-name="Grupo 2472" transform="translate(-829.853 -40.446)">
      <path id="Trazado_1636" data-name="Trazado 1636" d="M1319.368,62.536a7.7,7.7,0,0,0-8.485,1.577,7.609,7.609,0,0,0,10.741,10.779l.051-.051a2.476,2.476,0,0,1,1.82-.743,2.54,2.54,0,0,1,1.846.756,2.474,2.474,0,0,1,.769,1.833,2.517,2.517,0,0,1-.769,1.846l-.051.051a12.791,12.791,0,0,1-21.815-9.075,12.8,12.8,0,0,1,21.815-9.074l-.026.026a.023.023,0,0,0,.026.026,2.476,2.476,0,0,1,.743,1.82,2.445,2.445,0,0,1-.743,1.794l-7.331,7.28a2.56,2.56,0,0,1-1.846.744,2.542,2.542,0,0,1-2.615-2.615,2.56,2.56,0,0,1,.743-1.846Z" transform="translate(-352.138 -0.106)" fill="#002239" stroke="#01dcfd" stroke-width="1"/>
      <path id="Trazado_1637" data-name="Trazado 1637" d="M913.655,80.551v.17a3.089,3.089,0,0,0,.8,2.067,7.646,7.646,0,1,1-11.462.111,3.148,3.148,0,0,0,.75-2.065,2.5,2.5,0,0,0-4.33-1.705A12.786,12.786,0,0,0,896,87.9a13.026,13.026,0,0,0,12.65,12.775,12.833,12.833,0,0,0,9.277-21.887,2.5,2.5,0,0,0-4.273,1.764" transform="translate(0 -18.538)" fill="#002239" stroke="#01dcfd" stroke-width="1"/>
      <path id="Trazado_1638" data-name="Trazado 1638" d="M973.716,56.838h0A2.724,2.724,0,0,0,971,59.554V69.739a2.716,2.716,0,0,0,5.432,0V59.554a2.724,2.724,0,0,0-2.716-2.716" transform="translate(-64.815 -0.211)" fill="#002239" stroke="#01dcfd" stroke-width="1"/>
      <path id="Trazado_1639" data-name="Trazado 1639" d="M1112,56.594a13.166,13.166,0,0,1,8.9,3.794,12.336,12.336,0,0,1,3.743,8.921V79.2a3.058,3.058,0,0,1-.769,2.256,2.6,2.6,0,0,1-3.691,0,2.983,2.983,0,0,1-.769-2.2V69.36a4.119,4.119,0,0,1,.026-.461,7.15,7.15,0,0,0-2.2-4.845,7.336,7.336,0,0,0-5.383-2.23h-.1a7.335,7.335,0,0,0-5.383,2.23,7.148,7.148,0,0,0-2.2,4.845,4.238,4.238,0,0,1,.026.461v9.895a2.983,2.983,0,0,1-.769,2.2,2.6,2.6,0,0,1-3.691,0,3.057,3.057,0,0,1-.769-2.256V69.308a12.335,12.335,0,0,1,3.743-8.921,13.164,13.164,0,0,1,8.9-3.794Z" transform="translate(-175.39 0)" fill="#002239" stroke="#01dcfd" stroke-width="1"/>
    </g>
  </g>
</svg>
